<svg width="16" height="18" viewBox="0 0 16 18" fill="none" xmlns="http://www.w3.org/2000/svg">
<path d="M4.07547 9.64158H0.734628C0.379398 9.64158 0.083374 9.35824 0.083374 8.99991C0.083374 8.64991 0.379398 8.35824 0.734628 8.35824H4.07547L4.07573 4.37499C4.07573 2.33332 5.7968 0.666656 7.90511 0.666656H12.1045C14.2042 0.666656 15.9167 2.33332 15.9167 4.36666V13.6333C15.9167 15.675 14.2042 17.3333 12.0873 17.3333H7.89651C5.7968 17.3333 4.07573 15.675 4.07573 13.6417V9.64166H9.41105L8.03419 10.975C7.77603 11.225 7.77603 11.6333 8.03419 11.8833C8.16327 12.0083 8.33538 12.0667 8.50749 12.0667C8.67099 12.0667 8.8431 12.0083 8.97218 11.8833L11.4849 9.45833C11.614 9.34166 11.6829 9.17499 11.6829 8.99999C11.6829 8.83333 11.614 8.66666 11.4849 8.54999L8.97218 6.12499C8.71402 5.87499 8.29236 5.87499 8.03419 6.12499C7.77603 6.37499 7.77603 6.78333 8.03419 7.03333L9.41105 8.35833H4.07573L4.07547 9.64158Z" fill="#222020"/>
</svg>
