<svg width="26" height="26" viewBox="0 0 26 26" fill="none" xmlns="http://www.w3.org/2000/svg">
<path d="M20.3069 20.3506C20.8094 19.8515 21.6149 19.8515 22.1174 20.3506L25.4384 23.0313H25.4961C26.168 23.7105 26.168 24.8115 25.4961 25.4907C24.8242 26.1698 23.7348 26.1698 23.0629 25.4907L20.3069 22.332L20.2023 22.214C20.0075 21.9674 19.8999 21.66 19.8999 21.3413C19.8999 20.9695 20.0464 20.613 20.3069 20.3506ZM11.1509 0C14.1083 0 16.9446 1.18747 19.0358 3.30117C21.127 5.41488 22.3019 8.28167 22.3019 11.2709C22.3019 17.4957 17.3094 22.5418 11.1509 22.5418C4.99244 22.5418 0 17.4957 0 11.2709C0 5.04615 4.99244 0 11.1509 0Z" fill="#F27256"/>
</svg>
