<svg width="23" height="30" viewBox="0 0 23 30" fill="none" xmlns="http://www.w3.org/2000/svg">
<path d="M17.8506 12.5547L17.1178 5.625H19.6458C20.4398 5.625 21.0833 4.99541 21.0833 4.21875V1.40625C21.0833 0.62959 20.4398 0 19.6458 0H3.35417C2.56025 0 1.91667 0.62959 1.91667 1.40625V4.21875C1.91667 4.99541 2.56025 5.625 3.35417 5.625H5.88219L5.14936 12.5547C2.244 13.8762 0 16.2458 0 19.2188C0 19.9954 0.643581 20.625 1.4375 20.625H9.58333V26.7192C9.58333 26.7919 9.60064 26.8637 9.63395 26.9288L11.0714 29.7413C11.2476 30.086 11.7521 30.0866 11.9286 29.7413L13.3661 26.9288C13.3994 26.8637 13.4167 26.7919 13.4167 26.7192V20.625H21.5626C22.3565 20.625 23.0001 19.9954 23.0001 19.2188C23 16.2197 20.725 13.8621 17.8506 12.5547Z" fill="#FFD4C1" fill-opacity="0.1"/>
</svg>
