<svg width="18" height="16" viewBox="0 0 18 16" fill="none" xmlns="http://www.w3.org/2000/svg">
<path d="M6.91663 10.5127C10.3056 10.5127 13.1666 11.0703 13.1666 13.224C13.1666 15.3776 10.2873 15.9167 6.91663 15.9167C3.52763 15.9167 0.666626 15.3582 0.666626 13.2054C0.666626 11.0517 3.54515 10.5127 6.91663 10.5127ZM14.8324 4.25001C15.246 4.25001 15.5816 4.59122 15.5816 5.00969V5.9899H16.5841C16.9968 5.9899 17.3333 6.3311 17.3333 6.74958C17.3333 7.16805 16.9968 7.50926 16.5841 7.50926H15.5816V8.49033C15.5816 8.9088 15.246 9.25001 14.8324 9.25001C14.4198 9.25001 14.0833 8.9088 14.0833 8.49033V7.50926H13.0824C12.6689 7.50926 12.3333 7.16805 12.3333 6.74958C12.3333 6.3311 12.6689 5.9899 13.0824 5.9899H14.0833V5.00969C14.0833 4.59122 14.4198 4.25001 14.8324 4.25001ZM6.91663 0.0833435C9.2121 0.0833435 11.0522 1.9472 11.0522 4.27238C11.0522 6.59755 9.2121 8.46141 6.91663 8.46141C4.62115 8.46141 2.7811 6.59755 2.7811 4.27238C2.7811 1.9472 4.62115 0.0833435 6.91663 0.0833435Z" fill="#222020"/>
</svg>
